<mxfile modified="2022-10-11T14:45:40.030Z" host="app.diagrams.net" agent="5.0 (Macintosh; Intel Mac OS X 10_15_7) AppleWebKit/605.1.15 (KHTML, like Gecko) Version/15.6.1 Safari/605.1.15" etag="e6j7zSOjdMKMRu2x2VUP" version="20.4.0" type="github">
  <diagram id="C2fSY1v2SiZeoUbDoYyL" name="LondonRail">
    <mxGraphModel dx="2419" dy="1137" grid="1" gridSize="10" guides="1" tooltips="1" connect="1" arrows="1" fold="1" page="1" pageScale="1" pageWidth="1169" pageHeight="827" math="0" shadow="0">
      <root>
        <mxCell id="0" />
        <mxCell id="1" parent="0" />
        <mxCell id="3ne1QswCM8ZiEu4GHsYG-31" value="LONDON Rail Map" style="text;html=1;strokeColor=none;fillColor=none;align=center;verticalAlign=middle;whiteSpace=wrap;rounded=0;fontStyle=1;fontSize=20;fontColor=#4D4D4D;sketch=0;" parent="1" vertex="1">
          <mxGeometry x="106" y="20" width="790" height="30" as="geometry" />
        </mxCell>
        <mxCell id="3ne1QswCM8ZiEu4GHsYG-32" value="" style="line;strokeWidth=2;html=1;fontSize=20;fontColor=#4D4D4D;sketch=0;" parent="1" vertex="1">
          <mxGeometry x="20" y="50" width="960" height="10" as="geometry" />
        </mxCell>
        <mxCell id="GcedwNjUoWpqS550aU9t-1" value="" style="shape=mxgraph.signs.transportation.train_station;html=1;pointerEvents=1;fillColor=#FF8000;strokeColor=none;verticalLabelPosition=bottom;verticalAlign=top;align=center;sketch=0;" vertex="1" parent="1">
          <mxGeometry x="536" y="120" width="54" height="60" as="geometry" />
        </mxCell>
        <mxCell id="GcedwNjUoWpqS550aU9t-2" value="Stanmore" style="text;html=1;strokeColor=none;fillColor=none;align=center;verticalAlign=middle;whiteSpace=wrap;rounded=0;fontSize=16;fontStyle=1;fontColor=#006969;sketch=0;" vertex="1" parent="1">
          <mxGeometry x="610" y="130" width="60" height="30" as="geometry" />
        </mxCell>
        <mxCell id="GcedwNjUoWpqS550aU9t-3" value="" style="shape=mxgraph.signs.transportation.train_station;html=1;pointerEvents=1;fillColor=#FF8000;strokeColor=none;verticalLabelPosition=bottom;verticalAlign=top;align=center;sketch=0;" vertex="1" parent="1">
          <mxGeometry x="540" y="270" width="54" height="60" as="geometry" />
        </mxCell>
        <mxCell id="GcedwNjUoWpqS550aU9t-4" value="Baker Street" style="text;html=1;strokeColor=none;fillColor=none;align=center;verticalAlign=middle;whiteSpace=wrap;rounded=0;fontSize=16;fontStyle=1;fontColor=#006969;sketch=0;" vertex="1" parent="1">
          <mxGeometry x="462" y="260" width="76" height="30" as="geometry" />
        </mxCell>
        <mxCell id="GcedwNjUoWpqS550aU9t-5" value="" style="shape=mxgraph.signs.transportation.train_station;html=1;pointerEvents=1;fillColor=#FF8000;strokeColor=none;verticalLabelPosition=bottom;verticalAlign=top;align=center;sketch=0;" vertex="1" parent="1">
          <mxGeometry x="541.55" y="430" width="54" height="60" as="geometry" />
        </mxCell>
        <mxCell id="GcedwNjUoWpqS550aU9t-6" value="Bond Street" style="text;html=1;strokeColor=none;fillColor=none;align=center;verticalAlign=middle;whiteSpace=wrap;rounded=0;fontSize=16;fontStyle=1;fontColor=#006969;sketch=0;" vertex="1" parent="1">
          <mxGeometry x="610" y="425" width="76" height="30" as="geometry" />
        </mxCell>
        <mxCell id="GcedwNjUoWpqS550aU9t-7" value="" style="shape=mxgraph.signs.transportation.train_station;html=1;pointerEvents=1;fillColor=#FF8000;strokeColor=none;verticalLabelPosition=bottom;verticalAlign=top;align=center;sketch=0;" vertex="1" parent="1">
          <mxGeometry x="540" y="620" width="54" height="60" as="geometry" />
        </mxCell>
        <mxCell id="GcedwNjUoWpqS550aU9t-8" value="Westminster" style="text;html=1;strokeColor=none;fillColor=none;align=center;verticalAlign=middle;whiteSpace=wrap;rounded=0;fontSize=16;fontStyle=1;fontColor=#006969;sketch=0;" vertex="1" parent="1">
          <mxGeometry x="604" y="660" width="76" height="30" as="geometry" />
        </mxCell>
        <mxCell id="GcedwNjUoWpqS550aU9t-9" value="" style="shape=mxgraph.signs.transportation.train_station;html=1;pointerEvents=1;fillColor=#FF8000;strokeColor=none;verticalLabelPosition=bottom;verticalAlign=top;align=center;sketch=0;" vertex="1" parent="1">
          <mxGeometry x="540" y="827" width="54" height="60" as="geometry" />
        </mxCell>
        <mxCell id="GcedwNjUoWpqS550aU9t-10" value="Waterloo" style="text;html=1;strokeColor=none;fillColor=none;align=center;verticalAlign=middle;whiteSpace=wrap;rounded=0;fontSize=16;fontStyle=1;fontColor=#006969;sketch=0;" vertex="1" parent="1">
          <mxGeometry x="602" y="857" width="76" height="30" as="geometry" />
        </mxCell>
        <mxCell id="GcedwNjUoWpqS550aU9t-11" value="" style="shape=mxgraph.signs.transportation.train_station;html=1;pointerEvents=1;fillColor=#FF8000;strokeColor=none;verticalLabelPosition=bottom;verticalAlign=top;align=center;sketch=0;" vertex="1" parent="1">
          <mxGeometry x="280" y="432.5" width="54" height="60" as="geometry" />
        </mxCell>
        <mxCell id="GcedwNjUoWpqS550aU9t-12" value="Notting Hill Gate" style="text;html=1;strokeColor=none;fillColor=none;align=center;verticalAlign=middle;whiteSpace=wrap;rounded=0;fontSize=16;fontStyle=1;fontColor=#006969;sketch=0;" vertex="1" parent="1">
          <mxGeometry x="246.49" y="386.68" width="76" height="30" as="geometry" />
        </mxCell>
        <mxCell id="GcedwNjUoWpqS550aU9t-13" value="" style="shape=mxgraph.signs.transportation.train_station;html=1;pointerEvents=1;fillColor=#FF8000;strokeColor=none;verticalLabelPosition=bottom;verticalAlign=top;align=center;sketch=0;" vertex="1" parent="1">
          <mxGeometry x="794" y="440" width="54" height="60" as="geometry" />
        </mxCell>
        <mxCell id="GcedwNjUoWpqS550aU9t-14" value="Liverpool Street" style="text;html=1;strokeColor=none;fillColor=none;align=center;verticalAlign=middle;whiteSpace=wrap;rounded=0;fontSize=16;fontStyle=1;fontColor=#006969;sketch=0;" vertex="1" parent="1">
          <mxGeometry x="834" y="420" width="76" height="30" as="geometry" />
        </mxCell>
        <mxCell id="GcedwNjUoWpqS550aU9t-15" value="" style="shape=mxgraph.signs.transportation.train_station;html=1;pointerEvents=1;fillColor=#FF8000;strokeColor=none;verticalLabelPosition=bottom;verticalAlign=top;align=center;sketch=0;" vertex="1" parent="1">
          <mxGeometry x="1050" y="450" width="54" height="60" as="geometry" />
        </mxCell>
        <mxCell id="GcedwNjUoWpqS550aU9t-16" value="Epping" style="text;html=1;strokeColor=none;fillColor=none;align=center;verticalAlign=middle;whiteSpace=wrap;rounded=0;fontSize=16;fontStyle=1;fontColor=#006969;sketch=0;" vertex="1" parent="1">
          <mxGeometry x="1039" y="410" width="76" height="30" as="geometry" />
        </mxCell>
        <mxCell id="GcedwNjUoWpqS550aU9t-17" value="" style="shape=mxgraph.signs.transportation.train_station;html=1;pointerEvents=1;fillColor=#FF8000;strokeColor=none;verticalLabelPosition=bottom;verticalAlign=top;align=center;sketch=0;" vertex="1" parent="1">
          <mxGeometry x="20" y="415" width="54" height="60" as="geometry" />
        </mxCell>
        <mxCell id="GcedwNjUoWpqS550aU9t-18" value="North Action" style="text;html=1;strokeColor=none;fillColor=none;align=center;verticalAlign=middle;whiteSpace=wrap;rounded=0;fontSize=16;fontStyle=1;fontColor=#006969;sketch=0;" vertex="1" parent="1">
          <mxGeometry x="20" y="485" width="76" height="30" as="geometry" />
        </mxCell>
        <mxCell id="GcedwNjUoWpqS550aU9t-19" value="" style="verticalLabelPosition=bottom;dashed=0;shadow=0;html=1;align=center;verticalAlign=top;shape=mxgraph.cabinets.din_rail;fillColor=#d5e8d4;strokeColor=#82b366;strokeWidth=3;perimeterSpacing=2;opacity=70;sketch=0;" vertex="1" parent="1">
          <mxGeometry x="350" y="460" width="190" height="32.5" as="geometry" />
        </mxCell>
        <mxCell id="GcedwNjUoWpqS550aU9t-20" value="" style="verticalLabelPosition=bottom;dashed=0;shadow=0;html=1;align=center;verticalAlign=top;shape=mxgraph.cabinets.din_rail;fillColor=#d5e8d4;strokeColor=#82b366;strokeWidth=3;perimeterSpacing=2;opacity=70;sketch=0;" vertex="1" parent="1">
          <mxGeometry x="79" y="430" width="190" height="45" as="geometry" />
        </mxCell>
        <mxCell id="GcedwNjUoWpqS550aU9t-21" value="" style="verticalLabelPosition=bottom;dashed=0;shadow=0;html=1;align=center;verticalAlign=top;shape=mxgraph.cabinets.din_rail;fillColor=#d5e8d4;strokeColor=#82b366;strokeWidth=3;perimeterSpacing=2;opacity=70;sketch=0;" vertex="1" parent="1">
          <mxGeometry x="604" y="460" width="190" height="35" as="geometry" />
        </mxCell>
        <mxCell id="GcedwNjUoWpqS550aU9t-22" value="" style="verticalLabelPosition=bottom;dashed=0;shadow=0;html=1;align=center;verticalAlign=top;shape=mxgraph.cabinets.din_rail;fillColor=#d5e8d4;strokeColor=#82b366;strokeWidth=3;perimeterSpacing=2;opacity=70;sketch=0;" vertex="1" parent="1">
          <mxGeometry x="854" y="470" width="190" height="40" as="geometry" />
        </mxCell>
        <mxCell id="GcedwNjUoWpqS550aU9t-23" value="" style="verticalLabelPosition=bottom;dashed=0;shadow=0;html=1;align=center;verticalAlign=top;shape=mxgraph.cabinets.din_rail;fillColor=#d5e8d4;rotation=-90;strokeColor=#82b366;strokeWidth=3;perimeterSpacing=2;opacity=70;sketch=0;" vertex="1" parent="1">
          <mxGeometry x="506.5" y="537.5" width="126" height="30" as="geometry" />
        </mxCell>
        <mxCell id="GcedwNjUoWpqS550aU9t-24" value="" style="verticalLabelPosition=bottom;dashed=0;shadow=0;html=1;align=center;verticalAlign=top;shape=mxgraph.cabinets.din_rail;fillColor=#d5e8d4;rotation=-90;strokeColor=#82b366;strokeWidth=3;perimeterSpacing=2;opacity=70;sketch=0;" vertex="1" parent="1">
          <mxGeometry x="497" y="737" width="152" height="37" as="geometry" />
        </mxCell>
        <mxCell id="GcedwNjUoWpqS550aU9t-25" value="" style="verticalLabelPosition=bottom;dashed=0;shadow=0;html=1;align=center;verticalAlign=top;shape=mxgraph.cabinets.din_rail;fillColor=#d5e8d4;rotation=-90;strokeColor=#82b366;strokeWidth=3;perimeterSpacing=2;opacity=70;sketch=0;" vertex="1" parent="1">
          <mxGeometry x="516" y="366" width="98" height="25" as="geometry" />
        </mxCell>
        <mxCell id="GcedwNjUoWpqS550aU9t-26" value="" style="verticalLabelPosition=bottom;dashed=0;shadow=0;html=1;align=center;verticalAlign=top;shape=mxgraph.cabinets.din_rail;fillColor=#d5e8d4;rotation=-90;strokeColor=#82b366;strokeWidth=3;perimeterSpacing=2;opacity=70;sketch=0;" vertex="1" parent="1">
          <mxGeometry x="529.5" y="208.5" width="86" height="36" as="geometry" />
        </mxCell>
        <mxCell id="GcedwNjUoWpqS550aU9t-30" value="" style="verticalLabelPosition=bottom;dashed=0;shadow=0;html=1;align=center;verticalAlign=top;shape=mxgraph.cabinets.din_rail;fillColor=#d5e8d4;strokeColor=#82b366;strokeWidth=3;perimeterSpacing=2;opacity=70;sketch=0;rotation=30;" vertex="1" parent="1">
          <mxGeometry x="585" y="348.66" width="248.41" height="38.02" as="geometry" />
        </mxCell>
        <mxCell id="GcedwNjUoWpqS550aU9t-31" value="" style="verticalLabelPosition=bottom;dashed=0;shadow=0;html=1;align=center;verticalAlign=top;shape=mxgraph.cabinets.din_rail;fillColor=#d5e8d4;strokeColor=#82b366;strokeWidth=3;perimeterSpacing=2;opacity=70;sketch=0;rotation=-35;" vertex="1" parent="1">
          <mxGeometry x="582.06" y="563.46" width="245.27" height="38.64" as="geometry" />
        </mxCell>
        <mxCell id="GcedwNjUoWpqS550aU9t-33" value="" style="verticalLabelPosition=bottom;dashed=0;shadow=0;html=1;align=center;verticalAlign=top;shape=mxgraph.cabinets.din_rail;fillColor=#d5e8d4;strokeColor=#82b366;strokeWidth=3;perimeterSpacing=2;opacity=70;sketch=0;rotation=-30;" vertex="1" parent="1">
          <mxGeometry x="321.92" y="351.94" width="227.51" height="35.26" as="geometry" />
        </mxCell>
        <mxCell id="GcedwNjUoWpqS550aU9t-34" value="" style="verticalLabelPosition=bottom;dashed=0;shadow=0;html=1;align=center;verticalAlign=top;shape=mxgraph.cabinets.din_rail;fillColor=#d5e8d4;strokeColor=#82b366;strokeWidth=3;perimeterSpacing=2;opacity=70;sketch=0;rotation=30;" vertex="1" parent="1">
          <mxGeometry x="297.66" y="559.49" width="250" height="41.94" as="geometry" />
        </mxCell>
        <mxCell id="GcedwNjUoWpqS550aU9t-35" value="" style="shape=mxgraph.signs.transportation.train_station;html=1;pointerEvents=1;fillColor=#FF8000;strokeColor=none;verticalLabelPosition=bottom;verticalAlign=top;align=center;sketch=0;" vertex="1" parent="1">
          <mxGeometry x="-180" y="270" width="54" height="60" as="geometry" />
        </mxCell>
        <mxCell id="GcedwNjUoWpqS550aU9t-36" value="West Ruislip" style="text;html=1;strokeColor=none;fillColor=none;align=center;verticalAlign=middle;whiteSpace=wrap;rounded=0;fontSize=16;fontStyle=1;fontColor=#006969;sketch=0;" vertex="1" parent="1">
          <mxGeometry x="-180" y="340" width="76" height="30" as="geometry" />
        </mxCell>
        <mxCell id="GcedwNjUoWpqS550aU9t-37" value="" style="shape=mxgraph.signs.transportation.train_station;html=1;pointerEvents=1;fillColor=#FF8000;strokeColor=none;verticalLabelPosition=bottom;verticalAlign=top;align=center;sketch=0;" vertex="1" parent="1">
          <mxGeometry x="-202" y="535" width="54" height="60" as="geometry" />
        </mxCell>
        <mxCell id="GcedwNjUoWpqS550aU9t-38" value="Ealing Broadway" style="text;html=1;strokeColor=none;fillColor=none;align=center;verticalAlign=middle;whiteSpace=wrap;rounded=0;fontSize=16;fontStyle=1;fontColor=#006969;sketch=0;" vertex="1" parent="1">
          <mxGeometry x="-202" y="605" width="76" height="30" as="geometry" />
        </mxCell>
        <mxCell id="GcedwNjUoWpqS550aU9t-39" value="" style="verticalLabelPosition=bottom;dashed=0;shadow=0;html=1;align=center;verticalAlign=top;shape=mxgraph.cabinets.din_rail;fillColor=#d5e8d4;strokeColor=#82b366;strokeWidth=3;perimeterSpacing=2;opacity=70;sketch=0;rotation=-30;" vertex="1" parent="1">
          <mxGeometry x="-158.75" y="509.67" width="190" height="30" as="geometry" />
        </mxCell>
        <mxCell id="GcedwNjUoWpqS550aU9t-40" value="" style="verticalLabelPosition=bottom;dashed=0;shadow=0;html=1;align=center;verticalAlign=top;shape=mxgraph.cabinets.din_rail;fillColor=#d5e8d4;strokeColor=#82b366;strokeWidth=3;perimeterSpacing=2;opacity=70;sketch=0;rotation=45;" vertex="1" parent="1">
          <mxGeometry x="-146.46" y="361.46" width="190" height="35" as="geometry" />
        </mxCell>
        <mxCell id="GcedwNjUoWpqS550aU9t-54" value="" style="html=1;outlineConnect=0;whiteSpace=wrap;fillColor=#f8cecc;shape=mxgraph.archimate3.path;strokeWidth=6;shadow=0;sketch=0;fontSize=16;opacity=40;rotation=90;strokeColor=#b85450;" vertex="1" parent="1">
          <mxGeometry x="523" y="740.5" width="100" height="30" as="geometry" />
        </mxCell>
        <mxCell id="GcedwNjUoWpqS550aU9t-55" value="" style="html=1;outlineConnect=0;whiteSpace=wrap;fillColor=#f8cecc;shape=mxgraph.archimate3.path;strokeWidth=6;shadow=0;sketch=0;fontSize=16;opacity=40;rotation=90;strokeColor=#b85450;" vertex="1" parent="1">
          <mxGeometry x="533" y="540.25" width="77" height="30" as="geometry" />
        </mxCell>
        <mxCell id="GcedwNjUoWpqS550aU9t-56" value="" style="html=1;outlineConnect=0;whiteSpace=wrap;fillColor=#f8cecc;shape=mxgraph.archimate3.path;strokeWidth=6;shadow=0;sketch=0;fontSize=16;opacity=40;rotation=90;strokeColor=#b85450;" vertex="1" parent="1">
          <mxGeometry x="533.25" y="368.63" width="63.5" height="30" as="geometry" />
        </mxCell>
        <mxCell id="GcedwNjUoWpqS550aU9t-57" value="" style="html=1;outlineConnect=0;whiteSpace=wrap;fillColor=#f8cecc;shape=mxgraph.archimate3.path;strokeWidth=6;shadow=0;sketch=0;fontSize=16;opacity=40;rotation=90;strokeColor=#b85450;" vertex="1" parent="1">
          <mxGeometry x="540" y="211.5" width="63.5" height="30" as="geometry" />
        </mxCell>
        <mxCell id="GcedwNjUoWpqS550aU9t-58" value="" style="html=1;outlineConnect=0;whiteSpace=wrap;fillColor=#f8cecc;shape=mxgraph.archimate3.path;strokeWidth=6;shadow=0;sketch=0;fontSize=16;opacity=40;rotation=-180;strokeColor=#b85450;" vertex="1" parent="1">
          <mxGeometry x="395" y="460" width="100" height="30" as="geometry" />
        </mxCell>
        <mxCell id="GcedwNjUoWpqS550aU9t-59" value="" style="html=1;outlineConnect=0;whiteSpace=wrap;fillColor=#f8cecc;shape=mxgraph.archimate3.path;strokeWidth=6;shadow=0;sketch=0;fontSize=16;opacity=40;rotation=-180;strokeColor=#b85450;" vertex="1" parent="1">
          <mxGeometry x="900" y="475" width="100" height="30" as="geometry" />
        </mxCell>
        <mxCell id="GcedwNjUoWpqS550aU9t-60" value="" style="html=1;outlineConnect=0;whiteSpace=wrap;fillColor=#f8cecc;shape=mxgraph.archimate3.path;strokeWidth=6;shadow=0;sketch=0;fontSize=16;opacity=40;rotation=-180;strokeColor=#b85450;" vertex="1" parent="1">
          <mxGeometry x="649" y="465" width="100" height="30" as="geometry" />
        </mxCell>
        <mxCell id="GcedwNjUoWpqS550aU9t-61" value="" style="html=1;outlineConnect=0;whiteSpace=wrap;fillColor=#f8cecc;shape=mxgraph.archimate3.path;strokeWidth=6;shadow=0;sketch=0;fontSize=16;opacity=40;rotation=-180;strokeColor=#b85450;" vertex="1" parent="1">
          <mxGeometry x="110" y="440" width="100" height="30" as="geometry" />
        </mxCell>
        <mxCell id="GcedwNjUoWpqS550aU9t-62" value="" style="html=1;outlineConnect=0;whiteSpace=wrap;fillColor=#f8cecc;shape=mxgraph.archimate3.path;strokeWidth=6;shadow=0;sketch=0;fontSize=16;opacity=40;rotation=-135;strokeColor=#b85450;" vertex="1" parent="1">
          <mxGeometry x="-104" y="356.68" width="100" height="30" as="geometry" />
        </mxCell>
        <mxCell id="GcedwNjUoWpqS550aU9t-63" value="" style="html=1;outlineConnect=0;whiteSpace=wrap;fillColor=#f8cecc;shape=mxgraph.archimate3.path;strokeWidth=6;shadow=0;sketch=0;fontSize=16;opacity=40;rotation=-210;strokeColor=#b85450;" vertex="1" parent="1">
          <mxGeometry x="-120" y="515" width="100" height="30" as="geometry" />
        </mxCell>
        <mxCell id="GcedwNjUoWpqS550aU9t-67" value="" style="shape=mxgraph.signs.transportation.divided_highway;html=1;pointerEvents=1;fillColor=#000000;strokeColor=none;verticalLabelPosition=bottom;verticalAlign=top;align=center;sketch=0;shadow=0;strokeWidth=3;fontSize=16;fontColor=#006969;opacity=40;" vertex="1" parent="1">
          <mxGeometry x="489.42999999999995" y="667.7" width="60" height="72.8" as="geometry" />
        </mxCell>
        <mxCell id="GcedwNjUoWpqS550aU9t-69" value="" style="shape=mxgraph.signs.transportation.divided_highway;html=1;pointerEvents=1;fillColor=#000000;strokeColor=none;verticalLabelPosition=bottom;verticalAlign=top;align=center;sketch=0;shadow=0;strokeWidth=3;fontSize=16;fontColor=#006969;opacity=40;" vertex="1" parent="1">
          <mxGeometry x="19.999999999999943" y="348.66" width="60" height="72.8" as="geometry" />
        </mxCell>
        <mxCell id="GcedwNjUoWpqS550aU9t-70" value="" style="shape=mxgraph.signs.transportation.divided_highway;html=1;pointerEvents=1;fillColor=#000000;strokeColor=none;verticalLabelPosition=bottom;verticalAlign=top;align=center;sketch=0;shadow=0;strokeWidth=3;fontSize=16;fontColor=#006969;opacity=40;" vertex="1" parent="1">
          <mxGeometry x="602" y="230.00000000000006" width="60" height="72.8" as="geometry" />
        </mxCell>
      </root>
    </mxGraphModel>
  </diagram>
</mxfile>
